<mxfile host="Electron" modified="2023-12-24T21:13:01.031Z" agent="Mozilla/5.0 (Windows NT 10.0; Win64; x64) AppleWebKit/537.36 (KHTML, like Gecko) draw.io/22.1.11 Chrome/114.0.5735.289 Electron/25.9.8 Safari/537.36" etag="Q_T0an5X75sljHAcwo8b" version="22.1.11" type="device">
  <diagram name="Page-1" id="9f46799a-70d6-7492-0946-bef42562c5a5">
    <mxGraphModel dx="4040" dy="2536" grid="1" gridSize="10" guides="1" tooltips="1" connect="1" arrows="1" fold="1" page="1" pageScale="1" pageWidth="1100" pageHeight="850" background="none" math="0" shadow="0">
      <root>
        <mxCell id="0" />
        <mxCell id="1" parent="0" />
        <mxCell id="78961159f06e98e8-30" value="Piece&amp;nbsp;&amp;lt;&amp;lt;Abstract&amp;gt;&amp;gt;&lt;br&gt;&amp;nbsp;" style="swimlane;html=1;fontStyle=1;align=center;verticalAlign=top;childLayout=stackLayout;horizontal=1;startSize=26;horizontalStack=0;resizeParent=1;resizeLast=0;collapsible=1;marginBottom=0;swimlaneFillColor=#ffffff;rounded=0;shadow=0;comic=0;labelBackgroundColor=none;strokeWidth=1;fillColor=#e1d5e7;fontFamily=Verdana;fontSize=12;strokeColor=#9673a6;" parent="1" vertex="1">
          <mxGeometry x="-160" y="-280" width="300" height="370" as="geometry">
            <mxRectangle x="-160" y="-280" width="180" height="40" as="alternateBounds" />
          </mxGeometry>
        </mxCell>
        <mxCell id="78961159f06e98e8-31" value="# type: string" style="text;html=1;strokeColor=none;fillColor=none;align=left;verticalAlign=top;spacingLeft=4;spacingRight=4;whiteSpace=wrap;overflow=hidden;rotatable=0;points=[[0,0.5],[1,0.5]];portConstraint=eastwest;" parent="78961159f06e98e8-30" vertex="1">
          <mxGeometry y="26" width="300" height="26" as="geometry" />
        </mxCell>
        <mxCell id="78961159f06e98e8-32" value="# location: Point" style="text;html=1;strokeColor=none;fillColor=none;align=left;verticalAlign=top;spacingLeft=4;spacingRight=4;whiteSpace=wrap;overflow=hidden;rotatable=0;points=[[0,0.5],[1,0.5]];portConstraint=eastwest;" parent="78961159f06e98e8-30" vertex="1">
          <mxGeometry y="52" width="300" height="26" as="geometry" />
        </mxCell>
        <mxCell id="N-esZ-fksMiZb7eOglhe-8" value="# color: Player" style="text;html=1;strokeColor=none;fillColor=none;align=left;verticalAlign=top;spacingLeft=4;spacingRight=4;whiteSpace=wrap;overflow=hidden;rotatable=0;points=[[0,0.5],[1,0.5]];portConstraint=eastwest;" parent="78961159f06e98e8-30" vertex="1">
          <mxGeometry y="78" width="300" height="26" as="geometry" />
        </mxCell>
        <mxCell id="78961159f06e98e8-38" value="" style="line;html=1;strokeWidth=1;fillColor=none;align=left;verticalAlign=middle;spacingTop=-1;spacingLeft=3;spacingRight=3;rotatable=0;labelPosition=right;points=[];portConstraint=eastwest;" parent="78961159f06e98e8-30" vertex="1">
          <mxGeometry y="104" width="300" height="8" as="geometry" />
        </mxCell>
        <mxCell id="FR8U0XNLJHWNi_tTEjN4-1" value="+ Piece(char, Point, Player)" style="text;html=1;strokeColor=none;fillColor=none;align=left;verticalAlign=top;spacingLeft=4;spacingRight=4;whiteSpace=wrap;overflow=hidden;rotatable=0;points=[[0,0.5],[1,0.5]];portConstraint=eastwest;" parent="78961159f06e98e8-30" vertex="1">
          <mxGeometry y="112" width="300" height="28" as="geometry" />
        </mxCell>
        <mxCell id="Q7d5wxuqATfDF7tQTJf5-3" value="+ getType(): char" style="text;html=1;strokeColor=none;fillColor=none;align=left;verticalAlign=top;spacingLeft=4;spacingRight=4;whiteSpace=wrap;overflow=hidden;rotatable=0;points=[[0,0.5],[1,0.5]];portConstraint=eastwest;" parent="78961159f06e98e8-30" vertex="1">
          <mxGeometry y="140" width="300" height="28" as="geometry" />
        </mxCell>
        <mxCell id="N-esZ-fksMiZb7eOglhe-9" value="+ getLocation(): Point" style="text;html=1;strokeColor=none;fillColor=none;align=left;verticalAlign=top;spacingLeft=4;spacingRight=4;whiteSpace=wrap;overflow=hidden;rotatable=0;points=[[0,0.5],[1,0.5]];portConstraint=eastwest;" parent="78961159f06e98e8-30" vertex="1">
          <mxGeometry y="168" width="300" height="30" as="geometry" />
        </mxCell>
        <mxCell id="N-esZ-fksMiZb7eOglhe-10" value="+ getColor(): bool" style="text;html=1;strokeColor=none;fillColor=none;align=left;verticalAlign=top;spacingLeft=4;spacingRight=4;whiteSpace=wrap;overflow=hidden;rotatable=0;points=[[0,0.5],[1,0.5]];portConstraint=eastwest;" parent="78961159f06e98e8-30" vertex="1">
          <mxGeometry y="198" width="300" height="30" as="geometry" />
        </mxCell>
        <mxCell id="N-esZ-fksMiZb7eOglhe-46" value="+ checkIfLegallyForPiece(Point, Board): int" style="text;html=1;strokeColor=none;fillColor=none;align=left;verticalAlign=top;spacingLeft=4;spacingRight=4;whiteSpace=wrap;overflow=hidden;rotatable=0;points=[[0,0.5],[1,0.5]];portConstraint=eastwest;" parent="78961159f06e98e8-30" vertex="1">
          <mxGeometry y="228" width="300" height="28" as="geometry" />
        </mxCell>
        <mxCell id="FR8U0XNLJHWNi_tTEjN4-2" value="+ checkIfTripLegallyForPiece(Point): bool -&amp;nbsp;&lt;font color=&quot;#ff6666&quot;&gt;virtual = 0&lt;/font&gt;" style="text;html=1;strokeColor=none;fillColor=none;align=left;verticalAlign=top;spacingLeft=4;spacingRight=4;whiteSpace=wrap;overflow=hidden;rotatable=0;points=[[0,0.5],[1,0.5]];portConstraint=eastwest;" parent="78961159f06e98e8-30" vertex="1">
          <mxGeometry y="256" width="300" height="30" as="geometry" />
        </mxCell>
        <mxCell id="FR8U0XNLJHWNi_tTEjN4-3" value="+ checkIfPiecesInTrip(Point, Board): bool -&amp;nbsp;&lt;font color=&quot;#ff6666&quot;&gt;virtual = 0&lt;/font&gt;" style="text;html=1;strokeColor=none;fillColor=none;align=left;verticalAlign=top;spacingLeft=4;spacingRight=4;whiteSpace=wrap;overflow=hidden;rotatable=0;points=[[0,0.5],[1,0.5]];portConstraint=eastwest;" parent="78961159f06e98e8-30" vertex="1">
          <mxGeometry y="286" width="300" height="30" as="geometry" />
        </mxCell>
        <mxCell id="FR8U0XNLJHWNi_tTEjN4-4" value="+ operator=(Piece): void" style="text;html=1;strokeColor=none;fillColor=none;align=left;verticalAlign=top;spacingLeft=4;spacingRight=4;whiteSpace=wrap;overflow=hidden;rotatable=0;points=[[0,0.5],[1,0.5]];portConstraint=eastwest;" parent="78961159f06e98e8-30" vertex="1">
          <mxGeometry y="316" width="300" height="30" as="geometry" />
        </mxCell>
        <mxCell id="FR8U0XNLJHWNi_tTEjN4-5" value="+ turnIntoEmpty(): void" style="text;html=1;strokeColor=none;fillColor=none;align=left;verticalAlign=middle;spacingLeft=4;spacingRight=4;whiteSpace=wrap;overflow=hidden;rotatable=0;points=[[0,0.5],[1,0.5]];portConstraint=eastwest;" parent="78961159f06e98e8-30" vertex="1">
          <mxGeometry y="346" width="300" height="20" as="geometry" />
        </mxCell>
        <mxCell id="78961159f06e98e8-56" value="Point" style="swimlane;html=1;fontStyle=1;align=center;verticalAlign=top;childLayout=stackLayout;horizontal=1;startSize=26;horizontalStack=0;resizeParent=1;resizeLast=0;collapsible=1;marginBottom=0;swimlaneFillColor=#ffffff;rounded=0;shadow=0;comic=0;labelBackgroundColor=none;strokeWidth=1;fillColor=#cce5ff;fontFamily=Verdana;fontSize=12;strokeColor=#36393d;" parent="1" vertex="1">
          <mxGeometry x="-410" y="-280" width="160" height="264" as="geometry" />
        </mxCell>
        <mxCell id="78961159f06e98e8-57" value="- row: int" style="text;html=1;strokeColor=none;fillColor=none;align=left;verticalAlign=top;spacingLeft=4;spacingRight=4;whiteSpace=wrap;overflow=hidden;rotatable=0;points=[[0,0.5],[1,0.5]];portConstraint=eastwest;" parent="78961159f06e98e8-56" vertex="1">
          <mxGeometry y="26" width="160" height="26" as="geometry" />
        </mxCell>
        <mxCell id="78961159f06e98e8-58" value="- col: int" style="text;html=1;strokeColor=none;fillColor=none;align=left;verticalAlign=top;spacingLeft=4;spacingRight=4;whiteSpace=wrap;overflow=hidden;rotatable=0;points=[[0,0.5],[1,0.5]];portConstraint=eastwest;" parent="78961159f06e98e8-56" vertex="1">
          <mxGeometry y="52" width="160" height="26" as="geometry" />
        </mxCell>
        <mxCell id="78961159f06e98e8-64" value="" style="line;html=1;strokeWidth=1;fillColor=none;align=left;verticalAlign=middle;spacingTop=-1;spacingLeft=3;spacingRight=3;rotatable=0;labelPosition=right;points=[];portConstraint=eastwest;" parent="78961159f06e98e8-56" vertex="1">
          <mxGeometry y="78" width="160" height="8" as="geometry" />
        </mxCell>
        <mxCell id="Q7d5wxuqATfDF7tQTJf5-5" value="+ Point(int, int)" style="text;html=1;strokeColor=none;fillColor=none;align=left;verticalAlign=top;spacingLeft=4;spacingRight=4;whiteSpace=wrap;overflow=hidden;rotatable=0;points=[[0,0.5],[1,0.5]];portConstraint=eastwest;" parent="78961159f06e98e8-56" vertex="1">
          <mxGeometry y="86" width="160" height="26" as="geometry" />
        </mxCell>
        <mxCell id="78961159f06e98e8-66" value="+ getRow(): int" style="text;html=1;strokeColor=none;fillColor=none;align=left;verticalAlign=top;spacingLeft=4;spacingRight=4;whiteSpace=wrap;overflow=hidden;rotatable=0;points=[[0,0.5],[1,0.5]];portConstraint=eastwest;" parent="78961159f06e98e8-56" vertex="1">
          <mxGeometry y="112" width="160" height="26" as="geometry" />
        </mxCell>
        <mxCell id="78961159f06e98e8-68" value="+ getCol(): int" style="text;html=1;strokeColor=none;fillColor=none;align=left;verticalAlign=top;spacingLeft=4;spacingRight=4;whiteSpace=wrap;overflow=hidden;rotatable=0;points=[[0,0.5],[1,0.5]];portConstraint=eastwest;" parent="78961159f06e98e8-56" vertex="1">
          <mxGeometry y="138" width="160" height="26" as="geometry" />
        </mxCell>
        <mxCell id="N-esZ-fksMiZb7eOglhe-7" value="+ setRow(int): void" style="text;html=1;strokeColor=none;fillColor=none;align=left;verticalAlign=top;spacingLeft=4;spacingRight=4;whiteSpace=wrap;overflow=hidden;rotatable=0;points=[[0,0.5],[1,0.5]];portConstraint=eastwest;" parent="78961159f06e98e8-56" vertex="1">
          <mxGeometry y="164" width="160" height="26" as="geometry" />
        </mxCell>
        <mxCell id="N-esZ-fksMiZb7eOglhe-6" value="+ setCol(int): void" style="text;html=1;strokeColor=none;fillColor=none;align=left;verticalAlign=top;spacingLeft=4;spacingRight=4;whiteSpace=wrap;overflow=hidden;rotatable=0;points=[[0,0.5],[1,0.5]];portConstraint=eastwest;" parent="78961159f06e98e8-56" vertex="1">
          <mxGeometry y="190" width="160" height="26" as="geometry" />
        </mxCell>
        <mxCell id="78961159f06e98e8-65" value="+ toString(): str" style="text;html=1;strokeColor=none;fillColor=none;align=left;verticalAlign=top;spacingLeft=4;spacingRight=4;whiteSpace=wrap;overflow=hidden;rotatable=0;points=[[0,0.5],[1,0.5]];portConstraint=eastwest;" parent="78961159f06e98e8-56" vertex="1">
          <mxGeometry y="216" width="160" height="24" as="geometry" />
        </mxCell>
        <mxCell id="j8ENWB40vxtXC0gLjQnM-1" value="+ operator==(Point): bool" style="text;html=1;strokeColor=none;fillColor=none;align=left;verticalAlign=top;spacingLeft=4;spacingRight=4;whiteSpace=wrap;overflow=hidden;rotatable=0;points=[[0,0.5],[1,0.5]];portConstraint=eastwest;" parent="78961159f06e98e8-56" vertex="1">
          <mxGeometry y="240" width="160" height="24" as="geometry" />
        </mxCell>
        <mxCell id="78961159f06e98e8-108" value="Player&lt;br&gt;&lt;font style=&quot;font-size: 6px; font-weight: normal;&quot;&gt;(Black/White/Empty)&lt;/font&gt;" style="swimlane;html=1;fontStyle=1;align=center;verticalAlign=top;childLayout=stackLayout;horizontal=1;startSize=40;horizontalStack=0;resizeParent=1;resizeLast=0;collapsible=1;marginBottom=0;swimlaneFillColor=#ffffff;rounded=0;shadow=0;comic=0;labelBackgroundColor=none;strokeWidth=1;fillColor=#d5e8d4;fontFamily=Verdana;fontSize=12;strokeColor=#82b366;" parent="1" vertex="1">
          <mxGeometry x="210" y="-280" width="200" height="194" as="geometry" />
        </mxCell>
        <mxCell id="78961159f06e98e8-109" value="- playerColor: string" style="text;html=1;strokeColor=none;fillColor=none;align=left;verticalAlign=top;spacingLeft=4;spacingRight=4;whiteSpace=wrap;overflow=hidden;rotatable=0;points=[[0,0.5],[1,0.5]];portConstraint=eastwest;" parent="78961159f06e98e8-108" vertex="1">
          <mxGeometry y="40" width="200" height="26" as="geometry" />
        </mxCell>
        <mxCell id="78961159f06e98e8-116" value="" style="line;html=1;strokeWidth=1;fillColor=none;align=left;verticalAlign=middle;spacingTop=-1;spacingLeft=3;spacingRight=3;rotatable=0;labelPosition=right;points=[];portConstraint=eastwest;" parent="78961159f06e98e8-108" vertex="1">
          <mxGeometry y="66" width="200" height="8" as="geometry" />
        </mxCell>
        <mxCell id="78961159f06e98e8-117" value="+ Player(string)" style="text;html=1;strokeColor=none;fillColor=none;align=left;verticalAlign=middle;spacingLeft=4;spacingRight=4;whiteSpace=wrap;overflow=hidden;rotatable=0;points=[[0,0.5],[1,0.5]];portConstraint=eastwest;" parent="78961159f06e98e8-108" vertex="1">
          <mxGeometry y="74" width="200" height="30" as="geometry" />
        </mxCell>
        <mxCell id="Q7d5wxuqATfDF7tQTJf5-4" value="+ getPlayerColor(): string" style="text;html=1;strokeColor=none;fillColor=none;align=left;verticalAlign=middle;spacingLeft=4;spacingRight=4;whiteSpace=wrap;overflow=hidden;rotatable=0;points=[[0,0.5],[1,0.5]];portConstraint=eastwest;" parent="78961159f06e98e8-108" vertex="1">
          <mxGeometry y="104" width="200" height="30" as="geometry" />
        </mxCell>
        <mxCell id="78961159f06e98e8-120" value="+ isEmpty(): bool" style="text;html=1;strokeColor=none;fillColor=none;align=left;verticalAlign=middle;spacingLeft=4;spacingRight=4;whiteSpace=wrap;overflow=hidden;rotatable=0;points=[[0,0.5],[1,0.5]];portConstraint=eastwest;" parent="78961159f06e98e8-108" vertex="1">
          <mxGeometry y="134" width="200" height="30" as="geometry" />
        </mxCell>
        <mxCell id="dZYiVXdO-laqr1C4_rK_-5" value="+ operator== (Player): bool" style="text;html=1;strokeColor=none;fillColor=none;align=left;verticalAlign=middle;spacingLeft=4;spacingRight=4;whiteSpace=wrap;overflow=hidden;rotatable=0;points=[[0,0.5],[1,0.5]];portConstraint=eastwest;" parent="78961159f06e98e8-108" vertex="1">
          <mxGeometry y="164" width="200" height="30" as="geometry" />
        </mxCell>
        <mxCell id="N-esZ-fksMiZb7eOglhe-5" value="" style="endArrow=diamondThin;endFill=1;endSize=24;html=1;rounded=0;exitX=-0.001;exitY=0.03;exitDx=0;exitDy=0;exitPerimeter=0;entryX=1.001;entryY=0.042;entryDx=0;entryDy=0;entryPerimeter=0;" parent="1" source="78961159f06e98e8-30" target="78961159f06e98e8-56" edge="1">
          <mxGeometry width="160" relative="1" as="geometry">
            <mxPoint x="-160.0999999999999" y="-260" as="sourcePoint" />
            <mxPoint x="-240" y="-259.24" as="targetPoint" />
          </mxGeometry>
        </mxCell>
        <mxCell id="N-esZ-fksMiZb7eOglhe-13" value="Knight" style="swimlane;html=1;fontStyle=1;align=center;verticalAlign=top;childLayout=stackLayout;horizontal=1;startSize=26;horizontalStack=0;resizeParent=1;resizeLast=0;collapsible=1;marginBottom=0;swimlaneFillColor=#ffffff;rounded=0;shadow=0;comic=0;labelBackgroundColor=none;strokeWidth=1;fillColor=#fff2cc;fontFamily=Verdana;fontSize=12;strokeColor=#d6b656;" parent="1" vertex="1">
          <mxGeometry x="-640" y="340" width="240" height="142" as="geometry" />
        </mxCell>
        <mxCell id="N-esZ-fksMiZb7eOglhe-15" value="+ method(type): type" style="text;html=1;strokeColor=none;fillColor=none;align=left;verticalAlign=top;spacingLeft=4;spacingRight=4;whiteSpace=wrap;overflow=hidden;rotatable=0;points=[[0,0.5],[1,0.5]];portConstraint=eastwest;" parent="N-esZ-fksMiZb7eOglhe-13" vertex="1">
          <mxGeometry y="26" width="240" as="geometry" />
        </mxCell>
        <mxCell id="FOy00vj-5CrizT5VEJ31-8" value="" style="line;html=1;strokeWidth=1;fillColor=none;align=left;verticalAlign=middle;spacingTop=-1;spacingLeft=3;spacingRight=3;rotatable=0;labelPosition=right;points=[];portConstraint=eastwest;" parent="N-esZ-fksMiZb7eOglhe-13" vertex="1">
          <mxGeometry y="26" width="240" height="8" as="geometry" />
        </mxCell>
        <mxCell id="FR8U0XNLJHWNi_tTEjN4-17" value="+ Knight(char, Point, Player)" style="text;html=1;strokeColor=none;fillColor=none;align=left;verticalAlign=middle;spacingLeft=4;spacingRight=4;whiteSpace=wrap;overflow=hidden;rotatable=0;points=[[0,0.5],[1,0.5]];portConstraint=eastwest;" parent="N-esZ-fksMiZb7eOglhe-13" vertex="1">
          <mxGeometry y="34" width="240" height="36" as="geometry" />
        </mxCell>
        <mxCell id="tmNaLiBnvfA6UTR5LrdU-2" value="+ checkIfTripLegallyForPiece(Point): bool" style="text;html=1;strokeColor=none;fillColor=none;align=left;verticalAlign=middle;spacingLeft=4;spacingRight=4;whiteSpace=wrap;overflow=hidden;rotatable=0;points=[[0,0.5],[1,0.5]];portConstraint=eastwest;fontColor=#FF6666;" parent="N-esZ-fksMiZb7eOglhe-13" vertex="1">
          <mxGeometry y="70" width="240" height="36" as="geometry" />
        </mxCell>
        <mxCell id="FR8U0XNLJHWNi_tTEjN4-18" value="+ checkIfPiecesInTrip(Point, Board): bool" style="text;html=1;strokeColor=none;fillColor=none;align=left;verticalAlign=middle;spacingLeft=4;spacingRight=4;whiteSpace=wrap;overflow=hidden;rotatable=0;points=[[0,0.5],[1,0.5]];portConstraint=eastwest;fontColor=#FF6666;" parent="N-esZ-fksMiZb7eOglhe-13" vertex="1">
          <mxGeometry y="106" width="240" height="36" as="geometry" />
        </mxCell>
        <mxCell id="N-esZ-fksMiZb7eOglhe-19" value="King" style="swimlane;html=1;fontStyle=1;align=center;verticalAlign=top;childLayout=stackLayout;horizontal=1;startSize=26;horizontalStack=0;resizeParent=1;resizeLast=0;collapsible=1;marginBottom=0;swimlaneFillColor=#ffffff;rounded=0;shadow=0;comic=0;labelBackgroundColor=none;strokeWidth=1;fillColor=#fff2cc;fontFamily=Verdana;fontSize=12;strokeColor=#d6b656;" parent="1" vertex="1">
          <mxGeometry x="-120" y="340" width="240" height="142" as="geometry" />
        </mxCell>
        <mxCell id="N-esZ-fksMiZb7eOglhe-21" value="+ method(type): type" style="text;html=1;strokeColor=none;fillColor=none;align=left;verticalAlign=top;spacingLeft=4;spacingRight=4;whiteSpace=wrap;overflow=hidden;rotatable=0;points=[[0,0.5],[1,0.5]];portConstraint=eastwest;" parent="N-esZ-fksMiZb7eOglhe-19" vertex="1">
          <mxGeometry y="26" width="240" as="geometry" />
        </mxCell>
        <mxCell id="FOy00vj-5CrizT5VEJ31-9" value="" style="line;html=1;strokeWidth=1;fillColor=none;align=left;verticalAlign=middle;spacingTop=-1;spacingLeft=3;spacingRight=3;rotatable=0;labelPosition=right;points=[];portConstraint=eastwest;" parent="N-esZ-fksMiZb7eOglhe-19" vertex="1">
          <mxGeometry y="26" width="240" height="8" as="geometry" />
        </mxCell>
        <mxCell id="N-esZ-fksMiZb7eOglhe-22" value="+ King(char, Point, Player)" style="text;html=1;strokeColor=none;fillColor=none;align=left;verticalAlign=middle;spacingLeft=4;spacingRight=4;whiteSpace=wrap;overflow=hidden;rotatable=0;points=[[0,0.5],[1,0.5]];portConstraint=eastwest;" parent="N-esZ-fksMiZb7eOglhe-19" vertex="1">
          <mxGeometry y="34" width="240" height="36" as="geometry" />
        </mxCell>
        <mxCell id="tmNaLiBnvfA6UTR5LrdU-5" value="+ checkIfTripLegallyForPiece(Point): bool" style="text;html=1;strokeColor=none;fillColor=none;align=left;verticalAlign=middle;spacingLeft=4;spacingRight=4;whiteSpace=wrap;overflow=hidden;rotatable=0;points=[[0,0.5],[1,0.5]];portConstraint=eastwest;fontColor=#FF6666;" parent="N-esZ-fksMiZb7eOglhe-19" vertex="1">
          <mxGeometry y="70" width="240" height="36" as="geometry" />
        </mxCell>
        <mxCell id="FR8U0XNLJHWNi_tTEjN4-6" value="+ checkIfPiecesInTrip(Point, Board): bool" style="text;html=1;strokeColor=none;fillColor=none;align=left;verticalAlign=middle;spacingLeft=4;spacingRight=4;whiteSpace=wrap;overflow=hidden;rotatable=0;points=[[0,0.5],[1,0.5]];portConstraint=eastwest;fontColor=#FF6666;" parent="N-esZ-fksMiZb7eOglhe-19" vertex="1">
          <mxGeometry y="106" width="240" height="36" as="geometry" />
        </mxCell>
        <mxCell id="N-esZ-fksMiZb7eOglhe-24" value="Rook" style="swimlane;html=1;fontStyle=1;align=center;verticalAlign=top;childLayout=stackLayout;horizontal=1;startSize=26;horizontalStack=0;resizeParent=1;resizeLast=0;collapsible=1;marginBottom=0;swimlaneFillColor=#ffffff;rounded=0;shadow=0;comic=0;labelBackgroundColor=none;strokeWidth=1;fillColor=#fff2cc;fontFamily=Verdana;fontSize=12;strokeColor=#d6b656;" parent="1" vertex="1">
          <mxGeometry x="140" y="341" width="240" height="142" as="geometry" />
        </mxCell>
        <mxCell id="N-esZ-fksMiZb7eOglhe-26" value="+ method(type): type" style="text;html=1;strokeColor=none;fillColor=none;align=left;verticalAlign=top;spacingLeft=4;spacingRight=4;whiteSpace=wrap;overflow=hidden;rotatable=0;points=[[0,0.5],[1,0.5]];portConstraint=eastwest;" parent="N-esZ-fksMiZb7eOglhe-24" vertex="1">
          <mxGeometry y="26" width="240" as="geometry" />
        </mxCell>
        <mxCell id="FOy00vj-5CrizT5VEJ31-11" value="" style="line;html=1;strokeWidth=1;fillColor=none;align=left;verticalAlign=middle;spacingTop=-1;spacingLeft=3;spacingRight=3;rotatable=0;labelPosition=right;points=[];portConstraint=eastwest;" parent="N-esZ-fksMiZb7eOglhe-24" vertex="1">
          <mxGeometry y="26" width="240" height="8" as="geometry" />
        </mxCell>
        <mxCell id="tmNaLiBnvfA6UTR5LrdU-6" value="+ Rook(char, Point, Player)" style="text;html=1;strokeColor=none;fillColor=none;align=left;verticalAlign=middle;spacingLeft=4;spacingRight=4;whiteSpace=wrap;overflow=hidden;rotatable=0;points=[[0,0.5],[1,0.5]];portConstraint=eastwest;" parent="N-esZ-fksMiZb7eOglhe-24" vertex="1">
          <mxGeometry y="34" width="240" height="36" as="geometry" />
        </mxCell>
        <mxCell id="FR8U0XNLJHWNi_tTEjN4-12" value="+ checkIfPiecesInTrip(Point, Board): bool" style="text;html=1;strokeColor=none;fillColor=none;align=left;verticalAlign=middle;spacingLeft=4;spacingRight=4;whiteSpace=wrap;overflow=hidden;rotatable=0;points=[[0,0.5],[1,0.5]];portConstraint=eastwest;fontColor=#FF6666;" parent="N-esZ-fksMiZb7eOglhe-24" vertex="1">
          <mxGeometry y="70" width="240" height="36" as="geometry" />
        </mxCell>
        <mxCell id="FR8U0XNLJHWNi_tTEjN4-11" value="+ checkIfTripLegallyForPiece(Point): bool" style="text;html=1;strokeColor=none;fillColor=none;align=left;verticalAlign=middle;spacingLeft=4;spacingRight=4;whiteSpace=wrap;overflow=hidden;rotatable=0;points=[[0,0.5],[1,0.5]];portConstraint=eastwest;fontColor=#FF6666;" parent="N-esZ-fksMiZb7eOglhe-24" vertex="1">
          <mxGeometry y="106" width="240" height="36" as="geometry" />
        </mxCell>
        <mxCell id="N-esZ-fksMiZb7eOglhe-29" value="Bishop" style="swimlane;html=1;fontStyle=1;align=center;verticalAlign=top;childLayout=stackLayout;horizontal=1;startSize=26;horizontalStack=0;resizeParent=1;resizeLast=0;collapsible=1;marginBottom=0;swimlaneFillColor=#ffffff;rounded=0;shadow=0;comic=0;labelBackgroundColor=none;strokeWidth=1;fillColor=#fff2cc;fontFamily=Verdana;fontSize=12;strokeColor=#d6b656;" parent="1" vertex="1">
          <mxGeometry x="-900" y="340" width="240" height="142" as="geometry" />
        </mxCell>
        <mxCell id="N-esZ-fksMiZb7eOglhe-31" value="+ method(type): type" style="text;html=1;strokeColor=none;fillColor=none;align=left;verticalAlign=top;spacingLeft=4;spacingRight=4;whiteSpace=wrap;overflow=hidden;rotatable=0;points=[[0,0.5],[1,0.5]];portConstraint=eastwest;" parent="N-esZ-fksMiZb7eOglhe-29" vertex="1">
          <mxGeometry y="26" width="240" as="geometry" />
        </mxCell>
        <mxCell id="FOy00vj-5CrizT5VEJ31-10" value="" style="line;html=1;strokeWidth=1;fillColor=none;align=left;verticalAlign=middle;spacingTop=-1;spacingLeft=3;spacingRight=3;rotatable=0;labelPosition=right;points=[];portConstraint=eastwest;" parent="N-esZ-fksMiZb7eOglhe-29" vertex="1">
          <mxGeometry y="26" width="240" height="8" as="geometry" />
        </mxCell>
        <mxCell id="tmNaLiBnvfA6UTR5LrdU-1" value="+ Bishop(char, Point, Player)" style="text;html=1;strokeColor=none;fillColor=none;align=left;verticalAlign=middle;spacingLeft=4;spacingRight=4;whiteSpace=wrap;overflow=hidden;rotatable=0;points=[[0,0.5],[1,0.5]];portConstraint=eastwest;" parent="N-esZ-fksMiZb7eOglhe-29" vertex="1">
          <mxGeometry y="34" width="240" height="36" as="geometry" />
        </mxCell>
        <mxCell id="FR8U0XNLJHWNi_tTEjN4-19" value="&lt;font color=&quot;#ff6666&quot;&gt;+ checkIfTripLegallyForPiece(Point): bool&lt;/font&gt;" style="text;html=1;strokeColor=none;fillColor=none;align=left;verticalAlign=middle;spacingLeft=4;spacingRight=4;whiteSpace=wrap;overflow=hidden;rotatable=0;points=[[0,0.5],[1,0.5]];portConstraint=eastwest;" parent="N-esZ-fksMiZb7eOglhe-29" vertex="1">
          <mxGeometry y="70" width="240" height="36" as="geometry" />
        </mxCell>
        <mxCell id="FR8U0XNLJHWNi_tTEjN4-20" value="+ checkIfPiecesInTrip(Point, Board): bool" style="text;html=1;strokeColor=none;fillColor=none;align=left;verticalAlign=middle;spacingLeft=4;spacingRight=4;whiteSpace=wrap;overflow=hidden;rotatable=0;points=[[0,0.5],[1,0.5]];portConstraint=eastwest;fontColor=#FF6666;" parent="N-esZ-fksMiZb7eOglhe-29" vertex="1">
          <mxGeometry y="106" width="240" height="36" as="geometry" />
        </mxCell>
        <mxCell id="N-esZ-fksMiZb7eOglhe-38" value="Queen" style="swimlane;html=1;fontStyle=1;align=center;verticalAlign=top;childLayout=stackLayout;horizontal=1;startSize=26;horizontalStack=0;resizeParent=1;resizeLast=0;collapsible=1;marginBottom=0;swimlaneFillColor=#ffffff;rounded=0;shadow=0;comic=0;labelBackgroundColor=none;strokeWidth=1;fillColor=#fff2cc;fontFamily=Verdana;fontSize=12;strokeColor=#d6b656;" parent="1" vertex="1">
          <mxGeometry x="400" y="340" width="240" height="142" as="geometry" />
        </mxCell>
        <mxCell id="N-esZ-fksMiZb7eOglhe-40" value="+ method(type): type" style="text;html=1;strokeColor=none;fillColor=none;align=left;verticalAlign=top;spacingLeft=4;spacingRight=4;whiteSpace=wrap;overflow=hidden;rotatable=0;points=[[0,0.5],[1,0.5]];portConstraint=eastwest;" parent="N-esZ-fksMiZb7eOglhe-38" vertex="1">
          <mxGeometry y="26" width="240" as="geometry" />
        </mxCell>
        <mxCell id="FOy00vj-5CrizT5VEJ31-12" value="" style="line;html=1;strokeWidth=1;fillColor=none;align=left;verticalAlign=middle;spacingTop=-1;spacingLeft=3;spacingRight=3;rotatable=0;labelPosition=right;points=[];portConstraint=eastwest;" parent="N-esZ-fksMiZb7eOglhe-38" vertex="1">
          <mxGeometry y="26" width="240" height="8" as="geometry" />
        </mxCell>
        <mxCell id="FR8U0XNLJHWNi_tTEjN4-13" value="+ Queen(char, Point, Player)" style="text;html=1;strokeColor=none;fillColor=none;align=left;verticalAlign=middle;spacingLeft=4;spacingRight=4;whiteSpace=wrap;overflow=hidden;rotatable=0;points=[[0,0.5],[1,0.5]];portConstraint=eastwest;" parent="N-esZ-fksMiZb7eOglhe-38" vertex="1">
          <mxGeometry y="34" width="240" height="36" as="geometry" />
        </mxCell>
        <mxCell id="tmNaLiBnvfA6UTR5LrdU-7" value="+ checkIfTripLegallyForPiece(Point): bool" style="text;html=1;strokeColor=none;fillColor=none;align=left;verticalAlign=middle;spacingLeft=4;spacingRight=4;whiteSpace=wrap;overflow=hidden;rotatable=0;points=[[0,0.5],[1,0.5]];portConstraint=eastwest;fontColor=#FF6666;" parent="N-esZ-fksMiZb7eOglhe-38" vertex="1">
          <mxGeometry y="70" width="240" height="36" as="geometry" />
        </mxCell>
        <mxCell id="FR8U0XNLJHWNi_tTEjN4-14" value="+ checkIfPiecesInTrip(Point, Board): bool" style="text;html=1;strokeColor=none;fillColor=none;align=left;verticalAlign=middle;spacingLeft=4;spacingRight=4;whiteSpace=wrap;overflow=hidden;rotatable=0;points=[[0,0.5],[1,0.5]];portConstraint=eastwest;fontColor=#FF6666;" parent="N-esZ-fksMiZb7eOglhe-38" vertex="1">
          <mxGeometry y="106" width="240" height="36" as="geometry" />
        </mxCell>
        <mxCell id="N-esZ-fksMiZb7eOglhe-48" value="Game" style="swimlane;html=1;fontStyle=1;align=center;verticalAlign=top;childLayout=stackLayout;horizontal=1;startSize=26;horizontalStack=0;resizeParent=1;resizeLast=0;collapsible=1;marginBottom=0;swimlaneFillColor=#ffffff;rounded=0;shadow=0;comic=0;labelBackgroundColor=none;strokeWidth=1;fillColor=#ffe6cc;fontFamily=Verdana;fontSize=12;strokeColor=#d79b00;" parent="1" vertex="1">
          <mxGeometry x="210" y="-540" width="200" height="140" as="geometry" />
        </mxCell>
        <mxCell id="N-esZ-fksMiZb7eOglhe-49" value="+ board: Board" style="text;html=1;strokeColor=none;fillColor=none;align=left;verticalAlign=top;spacingLeft=4;spacingRight=4;whiteSpace=wrap;overflow=hidden;rotatable=0;points=[[0,0.5],[1,0.5]];portConstraint=eastwest;" parent="N-esZ-fksMiZb7eOglhe-48" vertex="1">
          <mxGeometry y="26" width="200" height="26" as="geometry" />
        </mxCell>
        <mxCell id="N-esZ-fksMiZb7eOglhe-50" value="+ turn: Player" style="text;html=1;strokeColor=none;fillColor=none;align=left;verticalAlign=top;spacingLeft=4;spacingRight=4;whiteSpace=wrap;overflow=hidden;rotatable=0;points=[[0,0.5],[1,0.5]];portConstraint=eastwest;" parent="N-esZ-fksMiZb7eOglhe-48" vertex="1">
          <mxGeometry y="52" width="200" height="26" as="geometry" />
        </mxCell>
        <mxCell id="N-esZ-fksMiZb7eOglhe-51" value="" style="line;html=1;strokeWidth=1;fillColor=none;align=left;verticalAlign=middle;spacingTop=-1;spacingLeft=3;spacingRight=3;rotatable=0;labelPosition=right;points=[];portConstraint=eastwest;" parent="N-esZ-fksMiZb7eOglhe-48" vertex="1">
          <mxGeometry y="78" width="200" height="8" as="geometry" />
        </mxCell>
        <mxCell id="N-esZ-fksMiZb7eOglhe-52" value="+ restart(): void" style="text;html=1;strokeColor=none;fillColor=none;align=left;verticalAlign=top;spacingLeft=4;spacingRight=4;whiteSpace=wrap;overflow=hidden;rotatable=0;points=[[0,0.5],[1,0.5]];portConstraint=eastwest;" parent="N-esZ-fksMiZb7eOglhe-48" vertex="1">
          <mxGeometry y="86" width="200" height="26" as="geometry" />
        </mxCell>
        <mxCell id="N-esZ-fksMiZb7eOglhe-53" value="+ moveOnBoard(Point, Point): bool" style="text;html=1;strokeColor=none;fillColor=none;align=left;verticalAlign=top;spacingLeft=4;spacingRight=4;whiteSpace=wrap;overflow=hidden;rotatable=0;points=[[0,0.5],[1,0.5]];portConstraint=eastwest;" parent="N-esZ-fksMiZb7eOglhe-48" vertex="1">
          <mxGeometry y="112" width="200" height="28" as="geometry" />
        </mxCell>
        <mxCell id="N-esZ-fksMiZb7eOglhe-54" value="Empty" style="swimlane;html=1;fontStyle=1;align=center;verticalAlign=top;childLayout=stackLayout;horizontal=1;startSize=26;horizontalStack=0;resizeParent=1;resizeLast=0;collapsible=1;marginBottom=0;swimlaneFillColor=#ffffff;rounded=0;shadow=0;comic=0;labelBackgroundColor=none;strokeWidth=1;fillColor=#fff2cc;fontFamily=Verdana;fontSize=12;strokeColor=#d6b656;" parent="1" vertex="1">
          <mxGeometry x="660" y="340" width="240" height="142" as="geometry" />
        </mxCell>
        <mxCell id="N-esZ-fksMiZb7eOglhe-56" value="+ method(type): type" style="text;html=1;strokeColor=none;fillColor=none;align=left;verticalAlign=top;spacingLeft=4;spacingRight=4;whiteSpace=wrap;overflow=hidden;rotatable=0;points=[[0,0.5],[1,0.5]];portConstraint=eastwest;" parent="N-esZ-fksMiZb7eOglhe-54" vertex="1">
          <mxGeometry y="26" width="240" as="geometry" />
        </mxCell>
        <mxCell id="FOy00vj-5CrizT5VEJ31-13" value="" style="line;html=1;strokeWidth=1;fillColor=none;align=left;verticalAlign=middle;spacingTop=-1;spacingLeft=3;spacingRight=3;rotatable=0;labelPosition=right;points=[];portConstraint=eastwest;" parent="N-esZ-fksMiZb7eOglhe-54" vertex="1">
          <mxGeometry y="26" width="240" height="8" as="geometry" />
        </mxCell>
        <mxCell id="vngwKVgM8XK932wjVJH3-1" value="+ Empty(char, Point, Player)" style="text;html=1;strokeColor=none;fillColor=none;align=left;verticalAlign=middle;spacingLeft=4;spacingRight=4;whiteSpace=wrap;overflow=hidden;rotatable=0;points=[[0,0.5],[1,0.5]];portConstraint=eastwest;" vertex="1" parent="N-esZ-fksMiZb7eOglhe-54">
          <mxGeometry y="34" width="240" height="36" as="geometry" />
        </mxCell>
        <mxCell id="FR8U0XNLJHWNi_tTEjN4-15" value="+ checkIfTripLegallyForPiece(Point): bool" style="text;html=1;strokeColor=none;fillColor=none;align=left;verticalAlign=middle;spacingLeft=4;spacingRight=4;whiteSpace=wrap;overflow=hidden;rotatable=0;points=[[0,0.5],[1,0.5]];portConstraint=eastwest;fontColor=#FF6666;" parent="N-esZ-fksMiZb7eOglhe-54" vertex="1">
          <mxGeometry y="70" width="240" height="36" as="geometry" />
        </mxCell>
        <mxCell id="FR8U0XNLJHWNi_tTEjN4-16" value="+ checkIfPiecesInTrip(Point, Board): bool" style="text;html=1;strokeColor=none;fillColor=none;align=left;verticalAlign=middle;spacingLeft=4;spacingRight=4;whiteSpace=wrap;overflow=hidden;rotatable=0;points=[[0,0.5],[1,0.5]];portConstraint=eastwest;fontColor=#FF6666;" parent="N-esZ-fksMiZb7eOglhe-54" vertex="1">
          <mxGeometry y="106" width="240" height="36" as="geometry" />
        </mxCell>
        <mxCell id="1lDcUQJDKsZjazDaLK2C-4" value="BoardUtils" style="swimlane;html=1;fontStyle=1;align=center;verticalAlign=top;childLayout=stackLayout;horizontal=1;startSize=26;horizontalStack=0;resizeParent=1;resizeLast=0;collapsible=1;marginBottom=0;swimlaneFillColor=#ffffff;rounded=0;shadow=0;comic=0;labelBackgroundColor=none;strokeWidth=1;fillColor=#f8cecc;fontFamily=Verdana;fontSize=12;strokeColor=#b85450;" parent="1" vertex="1">
          <mxGeometry x="-410" y="-540" width="380" height="202" as="geometry" />
        </mxCell>
        <mxCell id="1lDcUQJDKsZjazDaLK2C-6" value="+ getPointPlayer(Board,&amp;nbsp;Point): Player &amp;lt;&amp;lt;static&amp;gt;&amp;gt;" style="text;html=1;strokeColor=none;fillColor=none;align=left;verticalAlign=top;spacingLeft=4;spacingRight=4;whiteSpace=wrap;overflow=hidden;rotatable=0;points=[[0,0.5],[1,0.5]];portConstraint=eastwest;" parent="1lDcUQJDKsZjazDaLK2C-4" vertex="1">
          <mxGeometry y="26" width="380" height="26" as="geometry" />
        </mxCell>
        <mxCell id="1lDcUQJDKsZjazDaLK2C-7" value="+ isPointInBoundaries(Point): bool &amp;lt;&amp;lt;static&amp;gt;&amp;gt;" style="text;html=1;strokeColor=none;fillColor=none;align=left;verticalAlign=top;spacingLeft=4;spacingRight=4;whiteSpace=wrap;overflow=hidden;rotatable=0;points=[[0,0.5],[1,0.5]];portConstraint=eastwest;" parent="1lDcUQJDKsZjazDaLK2C-4" vertex="1">
          <mxGeometry y="52" width="380" height="30" as="geometry" />
        </mxCell>
        <mxCell id="1lDcUQJDKsZjazDaLK2C-8" value="+ isKingInCheck(Board,&amp;nbsp;Player): bool &amp;lt;&amp;lt;static&amp;gt;&amp;gt;" style="text;html=1;strokeColor=none;fillColor=none;align=left;verticalAlign=top;spacingLeft=4;spacingRight=4;whiteSpace=wrap;overflow=hidden;rotatable=0;points=[[0,0.5],[1,0.5]];portConstraint=eastwest;" parent="1lDcUQJDKsZjazDaLK2C-4" vertex="1">
          <mxGeometry y="82" width="380" height="30" as="geometry" />
        </mxCell>
        <mxCell id="oTtApw347DdLhjWwEzbH-1" value="+ isMoveValid(Board, Player, Point, Point): returnCode &amp;lt;&amp;lt;static&amp;gt;&amp;gt;" style="text;html=1;strokeColor=none;fillColor=none;align=left;verticalAlign=top;spacingLeft=4;spacingRight=4;whiteSpace=wrap;overflow=hidden;rotatable=0;points=[[0,0.5],[1,0.5]];portConstraint=eastwest;" parent="1lDcUQJDKsZjazDaLK2C-4" vertex="1">
          <mxGeometry y="112" width="380" height="30" as="geometry" />
        </mxCell>
        <mxCell id="1lDcUQJDKsZjazDaLK2C-10" value="+ movePiece(&amp;amp;Board, Player, Point, Point): void &amp;lt;&amp;lt;static&amp;gt;&amp;gt;" style="text;html=1;strokeColor=none;fillColor=none;align=left;verticalAlign=top;spacingLeft=4;spacingRight=4;whiteSpace=wrap;overflow=hidden;rotatable=0;points=[[0,0.5],[1,0.5]];portConstraint=eastwest;" parent="1lDcUQJDKsZjazDaLK2C-4" vertex="1">
          <mxGeometry y="142" width="380" height="30" as="geometry" />
        </mxCell>
        <mxCell id="Cl4JAZ7OxpyFaM4lKzIY-1" value="+ printBoard(Board): void &amp;lt;&amp;lt;static&amp;gt;&amp;gt;" style="text;html=1;strokeColor=none;fillColor=none;align=left;verticalAlign=top;spacingLeft=4;spacingRight=4;whiteSpace=wrap;overflow=hidden;rotatable=0;points=[[0,0.5],[1,0.5]];portConstraint=eastwest;" parent="1lDcUQJDKsZjazDaLK2C-4" vertex="1">
          <mxGeometry y="172" width="380" height="30" as="geometry" />
        </mxCell>
        <mxCell id="1lDcUQJDKsZjazDaLK2C-16" value="Pawn" style="swimlane;html=1;fontStyle=1;align=center;verticalAlign=top;childLayout=stackLayout;horizontal=1;startSize=26;horizontalStack=0;resizeParent=1;resizeLast=0;collapsible=1;marginBottom=0;swimlaneFillColor=#ffffff;rounded=0;shadow=0;comic=0;labelBackgroundColor=none;strokeWidth=1;fillColor=#fff2cc;fontFamily=Verdana;fontSize=12;strokeColor=#d6b656;" parent="1" vertex="1">
          <mxGeometry x="-380" y="340" width="240" height="168" as="geometry" />
        </mxCell>
        <mxCell id="1lDcUQJDKsZjazDaLK2C-17" value="- isFirstMove: bool" style="text;html=1;strokeColor=none;fillColor=none;align=left;verticalAlign=middle;spacingLeft=4;spacingRight=4;whiteSpace=wrap;overflow=hidden;rotatable=0;points=[[0,0.5],[1,0.5]];portConstraint=eastwest;" parent="1lDcUQJDKsZjazDaLK2C-16" vertex="1">
          <mxGeometry y="26" width="240" height="26" as="geometry" />
        </mxCell>
        <mxCell id="1lDcUQJDKsZjazDaLK2C-18" value="" style="line;html=1;strokeWidth=1;fillColor=none;align=left;verticalAlign=middle;spacingTop=-1;spacingLeft=3;spacingRight=3;rotatable=0;labelPosition=right;points=[];portConstraint=eastwest;" parent="1lDcUQJDKsZjazDaLK2C-16" vertex="1">
          <mxGeometry y="52" width="240" height="8" as="geometry" />
        </mxCell>
        <mxCell id="tmNaLiBnvfA6UTR5LrdU-4" value="+ Pawn(char, Point, Player)" style="text;html=1;strokeColor=none;fillColor=none;align=left;verticalAlign=middle;spacingLeft=4;spacingRight=4;whiteSpace=wrap;overflow=hidden;rotatable=0;points=[[0,0.5],[1,0.5]];portConstraint=eastwest;" parent="1lDcUQJDKsZjazDaLK2C-16" vertex="1">
          <mxGeometry y="60" width="240" height="36" as="geometry" />
        </mxCell>
        <mxCell id="FR8U0XNLJHWNi_tTEjN4-7" value="+ checkIfTripLegallyForPiece(Point): bool" style="text;html=1;strokeColor=none;fillColor=none;align=left;verticalAlign=middle;spacingLeft=4;spacingRight=4;whiteSpace=wrap;overflow=hidden;rotatable=0;points=[[0,0.5],[1,0.5]];portConstraint=eastwest;fontColor=#FF6666;" parent="1lDcUQJDKsZjazDaLK2C-16" vertex="1">
          <mxGeometry y="96" width="240" height="36" as="geometry" />
        </mxCell>
        <mxCell id="FR8U0XNLJHWNi_tTEjN4-8" value="+ checkIfPiecesInTrip(Point, Board): bool" style="text;html=1;strokeColor=none;fillColor=none;align=left;verticalAlign=middle;spacingLeft=4;spacingRight=4;whiteSpace=wrap;overflow=hidden;rotatable=0;points=[[0,0.5],[1,0.5]];portConstraint=eastwest;fontColor=#FF6666;" parent="1lDcUQJDKsZjazDaLK2C-16" vertex="1">
          <mxGeometry y="132" width="240" height="36" as="geometry" />
        </mxCell>
        <mxCell id="1lDcUQJDKsZjazDaLK2C-26" value="" style="endArrow=block;endSize=16;endFill=0;html=1;rounded=0;exitX=0.5;exitY=0;exitDx=0;exitDy=0;" parent="1" source="N-esZ-fksMiZb7eOglhe-29" edge="1">
          <mxGeometry width="160" relative="1" as="geometry">
            <mxPoint x="-720" y="420" as="sourcePoint" />
            <mxPoint x="-160" y="90" as="targetPoint" />
          </mxGeometry>
        </mxCell>
        <mxCell id="1lDcUQJDKsZjazDaLK2C-27" value="" style="endArrow=block;endSize=16;endFill=0;html=1;rounded=0;exitX=0.5;exitY=0;exitDx=0;exitDy=0;" parent="1" source="N-esZ-fksMiZb7eOglhe-13" edge="1">
          <mxGeometry width="160" relative="1" as="geometry">
            <mxPoint x="-480" y="420" as="sourcePoint" />
            <mxPoint x="-90" y="90" as="targetPoint" />
          </mxGeometry>
        </mxCell>
        <mxCell id="1lDcUQJDKsZjazDaLK2C-29" value="" style="endArrow=block;endSize=16;endFill=0;html=1;rounded=0;exitX=0.5;exitY=0;exitDx=0;exitDy=0;" parent="1" source="1lDcUQJDKsZjazDaLK2C-16" edge="1">
          <mxGeometry width="160" relative="1" as="geometry">
            <mxPoint x="-640" y="420" as="sourcePoint" />
            <mxPoint x="-40" y="90" as="targetPoint" />
          </mxGeometry>
        </mxCell>
        <mxCell id="1lDcUQJDKsZjazDaLK2C-30" value="" style="endArrow=block;endSize=16;endFill=0;html=1;rounded=0;exitX=0.5;exitY=0;exitDx=0;exitDy=0;" parent="1" source="N-esZ-fksMiZb7eOglhe-19" edge="1">
          <mxGeometry width="160" relative="1" as="geometry">
            <mxPoint x="-20" y="420" as="sourcePoint" />
            <mxPoint y="90" as="targetPoint" />
          </mxGeometry>
        </mxCell>
        <mxCell id="1lDcUQJDKsZjazDaLK2C-31" value="" style="endArrow=block;endSize=16;endFill=0;html=1;rounded=0;exitX=0.5;exitY=0;exitDx=0;exitDy=0;" parent="1" source="N-esZ-fksMiZb7eOglhe-24" edge="1">
          <mxGeometry width="160" relative="1" as="geometry">
            <mxPoint x="-560" y="420" as="sourcePoint" />
            <mxPoint x="40" y="90" as="targetPoint" />
          </mxGeometry>
        </mxCell>
        <mxCell id="1lDcUQJDKsZjazDaLK2C-32" value="" style="endArrow=block;endSize=16;endFill=0;html=1;rounded=0;exitX=0.5;exitY=0;exitDx=0;exitDy=0;" parent="1" source="N-esZ-fksMiZb7eOglhe-38" edge="1">
          <mxGeometry width="160" relative="1" as="geometry">
            <mxPoint x="430" y="390" as="sourcePoint" />
            <mxPoint x="90" y="90" as="targetPoint" />
          </mxGeometry>
        </mxCell>
        <mxCell id="1lDcUQJDKsZjazDaLK2C-33" value="" style="endArrow=block;endSize=16;endFill=0;html=1;rounded=0;entryX=1;entryY=1;entryDx=0;entryDy=0;exitX=0.5;exitY=0;exitDx=0;exitDy=0;" parent="1" source="N-esZ-fksMiZb7eOglhe-54" target="78961159f06e98e8-30" edge="1">
          <mxGeometry width="160" relative="1" as="geometry">
            <mxPoint x="670" y="370" as="sourcePoint" />
            <mxPoint x="149.99999999999955" y="68" as="targetPoint" />
          </mxGeometry>
        </mxCell>
        <mxCell id="1lDcUQJDKsZjazDaLK2C-36" value="" style="endArrow=diamondThin;endFill=1;endSize=24;html=1;rounded=0;exitX=0.998;exitY=0.024;exitDx=0;exitDy=0;exitPerimeter=0;entryX=-0.002;entryY=0.046;entryDx=0;entryDy=0;entryPerimeter=0;" parent="1" source="78961159f06e98e8-30" target="78961159f06e98e8-108" edge="1">
          <mxGeometry width="160" relative="1" as="geometry">
            <mxPoint x="240" y="-260" as="sourcePoint" />
            <mxPoint x="180" y="-310" as="targetPoint" />
          </mxGeometry>
        </mxCell>
        <mxCell id="1lDcUQJDKsZjazDaLK2C-38" value="" style="verticalLabelPosition=bottom;verticalAlign=top;html=1;shape=mxgraph.basic.rect;fillColor2=none;strokeWidth=1;size=20;indent=5;fillColor=#FF6666;strokeColor=#b85450;" parent="1" vertex="1">
          <mxGeometry x="-35" y="530" width="20" height="20" as="geometry" />
        </mxCell>
        <mxCell id="1lDcUQJDKsZjazDaLK2C-39" value="= virtual" style="text;html=1;strokeColor=none;fillColor=none;align=center;verticalAlign=middle;whiteSpace=wrap;rounded=0;" parent="1" vertex="1">
          <mxGeometry x="-15" y="530" width="50" height="20" as="geometry" />
        </mxCell>
        <mxCell id="dZYiVXdO-laqr1C4_rK_-1" value="" style="endArrow=open;endSize=12;dashed=1;html=1;rounded=0;entryX=0.51;entryY=0;entryDx=0;entryDy=0;exitX=0.083;exitY=1.007;exitDx=0;exitDy=0;exitPerimeter=0;entryPerimeter=0;" parent="1" source="Cl4JAZ7OxpyFaM4lKzIY-1" edge="1">
          <mxGeometry width="160" relative="1" as="geometry">
            <mxPoint x="-360" y="-398" as="sourcePoint" />
            <mxPoint x="-378.4000000000001" y="-280" as="targetPoint" />
          </mxGeometry>
        </mxCell>
        <mxCell id="dZYiVXdO-laqr1C4_rK_-2" value="" style="endArrow=open;endSize=12;dashed=1;html=1;rounded=0;exitX=0.92;exitY=0.999;exitDx=0;exitDy=0;exitPerimeter=0;entryX=0.5;entryY=0;entryDx=0;entryDy=0;" parent="1" source="Cl4JAZ7OxpyFaM4lKzIY-1" edge="1">
          <mxGeometry width="160" relative="1" as="geometry">
            <mxPoint x="-65.17000000000002" y="-398" as="sourcePoint" />
            <mxPoint x="-60" y="-280" as="targetPoint" />
          </mxGeometry>
        </mxCell>
        <mxCell id="dZYiVXdO-laqr1C4_rK_-4" value="" style="endArrow=diamondThin;endFill=1;endSize=24;html=1;rounded=0;exitX=0.499;exitY=1;exitDx=0;exitDy=0;exitPerimeter=0;entryX=0.101;entryY=-0.005;entryDx=0;entryDy=0;entryPerimeter=0;" parent="1" source="N-esZ-fksMiZb7eOglhe-53" edge="1">
          <mxGeometry width="160" relative="1" as="geometry">
            <mxPoint x="309.71000000000026" y="-520.002" as="sourcePoint" />
            <mxPoint x="309.71000000000026" y="-280.7099999999999" as="targetPoint" />
          </mxGeometry>
        </mxCell>
        <mxCell id="FOy00vj-5CrizT5VEJ31-1" value="Board" style="swimlane;html=1;fontStyle=1;align=center;verticalAlign=top;childLayout=stackLayout;horizontal=1;startSize=26;horizontalStack=0;resizeParent=1;resizeLast=0;collapsible=1;marginBottom=0;swimlaneFillColor=#ffffff;rounded=0;shadow=0;comic=0;labelBackgroundColor=none;strokeWidth=1;fillColor=#f8cecc;fontFamily=Verdana;fontSize=12;strokeColor=#b85450;" parent="1" vertex="1">
          <mxGeometry x="20" y="-540" width="140" height="210" as="geometry" />
        </mxCell>
        <mxCell id="FOy00vj-5CrizT5VEJ31-15" value="+ board: Piece*[][]" style="text;html=1;strokeColor=none;fillColor=none;align=left;verticalAlign=top;spacingLeft=4;spacingRight=4;whiteSpace=wrap;overflow=hidden;rotatable=0;points=[[0,0.5],[1,0.5]];portConstraint=eastwest;" parent="FOy00vj-5CrizT5VEJ31-1" vertex="1">
          <mxGeometry y="26" width="140" height="26" as="geometry" />
        </mxCell>
        <mxCell id="7_TIgdMq-pIPV6D1UjrQ-3" value="- rows: int" style="text;html=1;strokeColor=none;fillColor=none;align=left;verticalAlign=top;spacingLeft=4;spacingRight=4;whiteSpace=wrap;overflow=hidden;rotatable=0;points=[[0,0.5],[1,0.5]];portConstraint=eastwest;" parent="FOy00vj-5CrizT5VEJ31-1" vertex="1">
          <mxGeometry y="52" width="140" height="26" as="geometry" />
        </mxCell>
        <mxCell id="7_TIgdMq-pIPV6D1UjrQ-4" value="- cols: int" style="text;html=1;strokeColor=none;fillColor=none;align=left;verticalAlign=top;spacingLeft=4;spacingRight=4;whiteSpace=wrap;overflow=hidden;rotatable=0;points=[[0,0.5],[1,0.5]];portConstraint=eastwest;" parent="FOy00vj-5CrizT5VEJ31-1" vertex="1">
          <mxGeometry y="78" width="140" height="26" as="geometry" />
        </mxCell>
        <mxCell id="7_TIgdMq-pIPV6D1UjrQ-1" value="" style="line;html=1;strokeWidth=1;fillColor=none;align=left;verticalAlign=middle;spacingTop=-1;spacingLeft=3;spacingRight=3;rotatable=0;labelPosition=right;points=[];portConstraint=eastwest;" parent="FOy00vj-5CrizT5VEJ31-1" vertex="1">
          <mxGeometry y="104" width="140" height="6" as="geometry" />
        </mxCell>
        <mxCell id="Q7d5wxuqATfDF7tQTJf5-2" value="+&amp;nbsp;Board()" style="text;html=1;strokeColor=none;fillColor=none;align=left;verticalAlign=top;spacingLeft=4;spacingRight=4;whiteSpace=wrap;overflow=hidden;rotatable=0;points=[[0,0.5],[1,0.5]];portConstraint=eastwest;" parent="FOy00vj-5CrizT5VEJ31-1" vertex="1">
          <mxGeometry y="110" width="140" height="26" as="geometry" />
        </mxCell>
        <mxCell id="Q7d5wxuqATfDF7tQTJf5-1" value="+&amp;nbsp;~Board()" style="text;html=1;strokeColor=none;fillColor=none;align=left;verticalAlign=top;spacingLeft=4;spacingRight=4;whiteSpace=wrap;overflow=hidden;rotatable=0;points=[[0,0.5],[1,0.5]];portConstraint=eastwest;" parent="FOy00vj-5CrizT5VEJ31-1" vertex="1">
          <mxGeometry y="136" width="140" height="26" as="geometry" />
        </mxCell>
        <mxCell id="7_TIgdMq-pIPV6D1UjrQ-5" value="+ getRows(): int" style="text;html=1;strokeColor=none;fillColor=none;align=left;verticalAlign=top;spacingLeft=4;spacingRight=4;whiteSpace=wrap;overflow=hidden;rotatable=0;points=[[0,0.5],[1,0.5]];portConstraint=eastwest;" parent="FOy00vj-5CrizT5VEJ31-1" vertex="1">
          <mxGeometry y="162" width="140" height="26" as="geometry" />
        </mxCell>
        <mxCell id="7_TIgdMq-pIPV6D1UjrQ-6" value="+ getCols(): int" style="text;html=1;strokeColor=none;fillColor=none;align=left;verticalAlign=middle;spacingLeft=4;spacingRight=4;whiteSpace=wrap;overflow=hidden;rotatable=0;points=[[0,0.5],[1,0.5]];portConstraint=eastwest;" parent="FOy00vj-5CrizT5VEJ31-1" vertex="1">
          <mxGeometry y="188" width="140" height="22" as="geometry" />
        </mxCell>
        <mxCell id="u0T7a74IYTB3tlSjaULk-1" value="" style="endArrow=diamondThin;endFill=1;endSize=24;html=1;rounded=0;exitX=-0.001;exitY=0.106;exitDx=0;exitDy=0;exitPerimeter=0;entryX=1.002;entryY=0.073;entryDx=0;entryDy=0;entryPerimeter=0;" parent="1" source="N-esZ-fksMiZb7eOglhe-48" target="FOy00vj-5CrizT5VEJ31-1" edge="1">
          <mxGeometry width="160" relative="1" as="geometry">
            <mxPoint x="209.52000000000027" y="-520.002" as="sourcePoint" />
            <mxPoint x="70" y="-525" as="targetPoint" />
          </mxGeometry>
        </mxCell>
        <mxCell id="MmGaNxUmqwUClEEcJ2nT-1" value="" style="endArrow=diamondThin;endFill=0;endSize=24;html=1;rounded=0;entryX=0.75;entryY=0;entryDx=0;entryDy=0;exitX=0.643;exitY=1.004;exitDx=0;exitDy=0;exitPerimeter=0;" parent="1" source="7_TIgdMq-pIPV6D1UjrQ-6" edge="1">
          <mxGeometry width="160" relative="1" as="geometry">
            <mxPoint x="110" y="-350" as="sourcePoint" />
            <mxPoint x="110.28" y="-280" as="targetPoint" />
          </mxGeometry>
        </mxCell>
        <mxCell id="MmGaNxUmqwUClEEcJ2nT-2" value="" style="endArrow=diamondThin;endFill=1;endSize=24;html=1;rounded=0;exitX=0.716;exitY=-0.001;exitDx=0;exitDy=0;exitPerimeter=0;" parent="1" edge="1">
          <mxGeometry width="160" relative="1" as="geometry">
            <mxPoint x="70.00000000000001" y="-280.00000000000006" as="sourcePoint" />
            <mxPoint x="70" y="-330" as="targetPoint" />
          </mxGeometry>
        </mxCell>
        <mxCell id="MmGaNxUmqwUClEEcJ2nT-4" value="" style="endArrow=open;endSize=12;dashed=1;html=1;rounded=0;exitX=1.001;exitY=0.075;exitDx=0;exitDy=0;exitPerimeter=0;entryX=-0.001;entryY=0.071;entryDx=0;entryDy=0;entryPerimeter=0;" parent="1" source="1lDcUQJDKsZjazDaLK2C-4" target="FOy00vj-5CrizT5VEJ31-1" edge="1">
          <mxGeometry width="160" relative="1" as="geometry">
            <mxPoint x="-80" y="-660" as="sourcePoint" />
            <mxPoint x="-80" y="-602" as="targetPoint" />
          </mxGeometry>
        </mxCell>
      </root>
    </mxGraphModel>
  </diagram>
</mxfile>
